<svg xmlns="http://www.w3.org/2000/svg" version="1.1" xmlns:xlink="http://www.w3.org/1999/xlink" xmlns:svgjs="http://svgjs.dev/svgjs" width="1500" height="1500" viewBox="0 0 1500 1500"><rect width="1500" height="1500" fill="#000000"></rect><g transform="matrix(0.6666666666666666,0,0,0.6666666666666666,249.78425655976667,249.78425655976673)"><svg viewBox="0 0 343 343" data-background-color="#000000" preserveAspectRatio="xMidYMid meet" height="1500" width="1500" xmlns="http://www.w3.org/2000/svg" xmlns:xlink="http://www.w3.org/1999/xlink"><g id="tight-bounds" transform="matrix(1,0,0,1,0.0740000000000407,0.07400000000001228)"><svg viewBox="0 0 342.85155851775386 342.85155851775386" height="342.85155851775386" width="342.85155851775386"><rect width="342.852" height="342.852" fill="url(#5e8173ef-2546-45ef-8a5b-8aa62be03226)" mask="url(#c0b61e62-05f2-4530-a6a2-65ae109a8f2e)" data-fill-palette-color="tertiary"></rect><g><svg></svg></g><g><svg viewBox="0 0 342.85155851775386 342.85155851775386" height="342.85155851775386" width="342.85155851775386"><g><path d="M0 171.426c0-94.676 76.75-171.426 171.426-171.426 94.676 0 171.426 76.75 171.426 171.426 0 94.676-76.75 171.426-171.426 171.426-94.676 0-171.426-76.75-171.426-171.426zM171.426 340.786c93.535 0 169.36-75.825 169.36-169.36 0-93.535-75.825-169.36-169.36-169.36-93.535 0-169.36 75.825-169.36 169.36 0 93.535 75.825 169.36 169.36 169.36z" data-fill-palette-color="tertiary" fill="url(#5e8173ef-2546-45ef-8a5b-8aa62be03226)" stroke="transparent"></path><ellipse rx="164.56874808852186" ry="164.56874808852186" cx="171.42577925887693" cy="171.42577925887693" fill="url(#5e8173ef-2546-45ef-8a5b-8aa62be03226)" stroke="transparent" stroke-width="0" fill-opacity="1" data-fill-palette-color="tertiary"></ellipse></g><g transform="matrix(1,0,0,1,64.84655864529837,141.4361737885097)"><svg viewBox="0 0 213.1584412271571 59.97921094073445" height="59.97921094073445" width="213.1584412271571"><g><svg viewBox="0 0 213.1584412271571 59.97921094073445" height="59.97921094073445" width="213.1584412271571"><g><svg viewBox="0 0 213.1584412271571 59.97921094073445" height="59.97921094073445" width="213.1584412271571"><g transform="matrix(1,0,0,1,0,37.069558607977704)"><svg viewBox="0 0 213.1584412271571 22.909652332756746" height="22.909652332756746" width="213.1584412271571"><g id="textblocktransform"><svg viewBox="0 0 213.1584412271571 22.909652332756746" height="22.909652332756746" width="213.1584412271571" id="textblock"><g><svg viewBox="0 0 213.1584412271571 22.909652332756746" height="22.909652332756746" width="213.1584412271571"><g transform="matrix(1,0,0,1,0,0)"><svg width="213.1584412271571" viewBox="2.49 -39.84 485.15999999999997 52.14" height="22.909652332756746" data-palette-color="#000000"><path d="M2.49-35.99L29.88-35.99 29.88-31.98 19.14-31.98 19.14 0 13.23 0 13.23-31.98 2.49-31.98 2.49-35.99ZM36.57 0L36.57-37.94 42.48-37.94 42.48 0 36.57 0ZM57.08-24.51L57.08-24.51Q57.91-23.68 58.37-22.58 58.84-21.48 59.06-20.29 59.27-19.09 59.32-17.87 59.37-16.65 59.37-15.48L59.37-15.48 59.37-0.98 59.37 0 53.42 0 53.42-14.99Q53.42-16.65 53.27-18.16 53.12-19.68 52.59-20.85 52.05-22.02 51.12-22.68 50.19-23.34 48.53-23.34L48.53-23.34Q47.85-23.34 46.7-23.12 45.55-22.9 44.48-22.41L44.48-22.41 44.48-26.17Q45.8-26.86 47.34-27.34 48.87-27.83 50.34-27.83L50.34-27.83Q52.54-27.83 54.05-26.93 55.56-26.03 57.08-24.51ZM79.1-23.19L79.1-27.78Q81.73-27.54 83.86-26.37 85.98-25.2 87.5-23.34 89.01-21.48 89.81-19.09 90.62-16.7 90.62-14.11L90.62-14.11Q90.62-12.94 90.47-11.77L90.47-11.77 73.73-11.77 73.73-16.06 85-16.06Q85-17.33 84.59-18.51 84.17-19.68 83.37-20.68 82.56-21.68 81.49-22.36 80.41-23.05 79.1-23.19L79.1-23.19ZM78.9-4.59L78.9-4.59Q79.44-4.59 80.24-4.71 81.05-4.83 81.95-5.15 82.86-5.47 83.76-5.96 84.66-6.45 85.35-7.13L85.35-7.13 87.5-3.86Q85.88-1.86 83.74-0.83 81.59 0.2 78.27 0.2L78.27 0.2Q75.58 0.2 73.24-0.9 70.89-2 69.23-3.91 67.57-5.81 66.6-8.35 65.62-10.89 65.62-13.82L65.62-13.82Q65.62-16.6 66.52-19.09 67.43-21.58 68.99-23.46 70.55-25.34 72.63-26.51 74.7-27.69 77.09-27.83L77.09-27.83 77.09-23.14Q75.29-22.8 74.12-21.68 72.94-20.56 72.29-19.12 71.63-17.68 71.36-16.16 71.09-14.65 71.09-13.57L71.09-13.57Q71.09-11.67 71.55-10.03 72.02-8.4 72.99-7.2 73.97-6.01 75.41-5.3 76.85-4.59 78.9-4.59ZM136.76-32.67L132.7-29.05Q131.58-30.32 130.31-30.96 129.04-31.59 127.58-31.69L127.58-31.69 127.58-36.52Q133.05-36.28 136.76-32.67L136.76-32.67ZM127.58 0.24L127.58-4.59Q129.04-4.74 130.34-5.37 131.63-6.01 132.7-7.23L132.7-7.23 136.76-3.66Q134.9-1.86 132.61-0.88 130.31 0.1 127.58 0.24L127.58 0.24ZM111.76-18.16L111.76-18.16Q111.76-22.51 112.81-25.83 113.86-29.15 115.71-31.45 117.57-33.74 120.08-35.01 122.6-36.28 125.58-36.52L125.58-36.52 125.58-31.64Q123.96-31.4 122.55-30.54 121.13-29.69 120.06-28.08 118.98-26.46 118.37-24 117.76-21.53 117.71-18.16L117.71-18.16Q117.76-14.75 118.37-12.3 118.98-9.86 120.06-8.2 121.13-6.54 122.57-5.66 124.01-4.79 125.58-4.59L125.58-4.59 125.58 0.2Q122.6 0 120.08-1.27 117.57-2.54 115.71-4.83 113.86-7.13 112.81-10.47 111.76-13.82 111.76-18.16ZM157.8-23.1L157.8-27.69Q160.49-27.54 162.68-26.39 164.88-25.24 166.37-23.36 167.86-21.48 168.69-18.99 169.52-16.5 169.52-13.67L169.52-13.67Q169.52-10.84 168.66-8.37 167.81-5.91 166.3-4.08 164.78-2.25 162.59-1.12 160.39 0 157.8 0.2L157.8 0.2 157.8-4.49Q160.24-5.03 161.78-7.57 163.32-10.11 163.32-13.67L163.32-13.67Q163.32-15.48 162.95-17.07 162.59-18.65 161.85-19.92 161.12-21.19 160.09-22.02 159.07-22.85 157.8-23.1L157.8-23.1ZM144.18-13.77L144.18-13.77Q144.18-16.6 145.01-19.04 145.84-21.48 147.38-23.32 148.91-25.15 151.06-26.27 153.21-27.39 155.8-27.64L155.8-27.64 155.8-23.1Q153.36-22.56 151.89-20.02 150.43-17.48 150.43-13.92L150.43-13.92Q150.43-12.11 150.79-10.5 151.16-8.89 151.84-7.62 152.53-6.35 153.53-5.52 154.53-4.69 155.8-4.49L155.8-4.49 155.8 0.2Q153.11 0 150.96-1.15 148.82-2.29 147.3-4.15 145.79-6.01 144.98-8.5 144.18-10.99 144.18-13.77ZM194.17-37.94L200.13-37.94 200.13 0 194.52 0 194.17-3.27 194.17-37.94ZM175.42-14.16L175.42-14.16Q175.42-17.97 176.47-20.56 177.52-23.14 179.18-24.76 180.84-26.37 182.87-27.08 184.9-27.78 186.85-27.78L186.85-27.78Q188.36-27.78 189.73-27.44 191.1-27.1 192.17-26.46L192.17-26.46 192.17-21.29Q191.34-22.17 190.32-22.71 189.29-23.24 188.02-23.24L188.02-23.24Q186.51-23.24 185.34-22.49 184.16-21.73 183.36-20.41 182.55-19.09 182.11-17.38 181.67-15.67 181.67-13.72L181.67-13.72Q181.67-11.77 182.16-10.08 182.65-8.4 183.48-7.13 184.31-5.86 185.51-5.13 186.7-4.39 188.12-4.39L188.12-4.39Q190.51-4.39 192.17-6.3L192.17-6.3 192.17-1.22Q191-0.59 189.46-0.17 187.92 0.24 186.22 0.24L186.22 0.24Q184.26 0.24 182.38-0.46 180.5-1.17 179.04-2.78L179.04-2.78Q177.18-4.88 176.3-7.98 175.42-11.08 175.42-14.16ZM221.27-23.19L221.27-27.78Q223.91-27.54 226.03-26.37 228.16-25.2 229.67-23.34 231.18-21.48 231.99-19.09 232.8-16.7 232.8-14.11L232.8-14.11Q232.8-12.94 232.65-11.77L232.65-11.77 215.9-11.77 215.9-16.06 227.18-16.06Q227.18-17.33 226.76-18.51 226.35-19.68 225.54-20.68 224.74-21.68 223.66-22.36 222.59-23.05 221.27-23.19L221.27-23.19ZM221.08-4.59L221.08-4.59Q221.61-4.59 222.42-4.71 223.22-4.83 224.13-5.15 225.03-5.47 225.93-5.96 226.84-6.45 227.52-7.13L227.52-7.13 229.67-3.86Q228.06-1.86 225.91-0.83 223.76 0.2 220.44 0.2L220.44 0.2Q217.76 0.2 215.41-0.9 213.07-2 211.41-3.91 209.75-5.81 208.77-8.35 207.8-10.89 207.8-13.82L207.8-13.82Q207.8-16.6 208.7-19.09 209.6-21.58 211.16-23.46 212.73-25.34 214.8-26.51 216.88-27.69 219.27-27.83L219.27-27.83 219.27-23.14Q217.46-22.8 216.29-21.68 215.12-20.56 214.46-19.12 213.8-17.68 213.53-16.16 213.26-14.65 213.26-13.57L213.26-13.57Q213.26-11.67 213.73-10.03 214.19-8.4 215.17-7.2 216.14-6.01 217.59-5.3 219.03-4.59 221.08-4.59ZM271.56-35.94L284.06 0 278 0 268.68-26.95 259.25 0 253.15 0 265.75-35.94 271.56-35.94ZM265.36-11.43L271.9-11.43 273.32-7.47 263.99-7.47 265.36-11.43ZM297.09-27.54L297.09-12.55Q297.09-10.84 297.24-9.35 297.39-7.86 297.88-6.74 298.36-5.62 299.34-4.93 300.32-4.25 301.93-4.25L301.93-4.25Q302.56-4.25 303.73-4.44 304.91-4.64 305.98-5.08L305.98-5.08 305.98-1.46Q304.71-0.78 303.22-0.27 301.73 0.24 300.27 0.24L300.27 0.24Q299.1 0.24 298.17 0.02 297.24-0.2 296.43-0.66 295.63-1.12 294.9-1.71 294.16-2.29 293.43-3.03L293.43-3.03Q292.6-3.86 292.11-4.96 291.63-6.05 291.41-7.25 291.19-8.45 291.16-9.67 291.14-10.89 291.14-12.06L291.14-12.06 291.14-27.54 297.09-27.54ZM307.98-27.54L313.94-27.54 313.94 0 308.62 0 307.98-2.83 307.98-27.54ZM330.1-23.54L330.1-8.35Q330.1-6.69 330.54-5.76 330.98-4.83 331.78-4.35 332.59-3.86 333.59-3.74 334.59-3.61 335.71-3.61L335.71-3.61 335.71 0Q335.08 0.1 334.45 0.15L334.45 0.15Q333.91 0.2 333.15 0.22 332.39 0.24 331.66 0.24L331.66 0.24Q330.93 0.24 330.17 0.2 329.42 0.15 328.88 0.05L328.88 0.05Q327.22-0.24 326.29-1.39 325.36-2.54 324.9-3.93 324.44-5.32 324.31-6.64 324.19-7.96 324.19-8.69L324.19-8.69 324.19-23.54 320.58-23.54 320.58-27.54 324.19-27.54 324.19-35.35 330.1-35.35 330.1-27.54 334.49-27.54 334.49-23.54 330.1-23.54ZM342.65 0L342.65-37.94 348.55-37.94 348.55 0 342.65 0ZM363.15-24.51L363.15-24.51Q363.98-23.68 364.45-22.58 364.91-21.48 365.13-20.29 365.35-19.09 365.4-17.87 365.45-16.65 365.45-15.48L365.45-15.48 365.45-0.98 365.45 0 359.49 0 359.49-14.99Q359.49-16.65 359.35-18.16 359.2-19.68 358.66-20.85 358.12-22.02 357.2-22.68 356.27-23.34 354.61-23.34L354.61-23.34Q353.93-23.34 352.78-23.12 351.63-22.9 350.56-22.41L350.56-22.41 350.56-26.17Q351.87-26.86 353.41-27.34 354.95-27.83 356.42-27.83L356.42-27.83Q358.61-27.83 360.13-26.93 361.64-26.03 363.15-24.51ZM385.32-23.1L385.32-27.69Q388-27.54 390.2-26.39 392.4-25.24 393.89-23.36 395.38-21.48 396.21-18.99 397.04-16.5 397.04-13.67L397.04-13.67Q397.04-10.84 396.18-8.37 395.33-5.91 393.82-4.08 392.3-2.25 390.1-1.12 387.91 0 385.32 0.2L385.32 0.2 385.32-4.49Q387.76-5.03 389.3-7.57 390.84-10.11 390.84-13.67L390.84-13.67Q390.84-15.48 390.47-17.07 390.1-18.65 389.37-19.92 388.64-21.19 387.61-22.02 386.59-22.85 385.32-23.1L385.32-23.1ZM371.7-13.77L371.7-13.77Q371.7-16.6 372.53-19.04 373.36-21.48 374.89-23.32 376.43-25.15 378.58-26.27 380.73-27.39 383.32-27.64L383.32-27.64 383.32-23.1Q380.88-22.56 379.41-20.02 377.95-17.48 377.95-13.92L377.95-13.92Q377.95-12.11 378.31-10.5 378.68-8.89 379.36-7.62 380.05-6.35 381.05-5.52 382.05-4.69 383.32-4.49L383.32-4.49 383.32 0.2Q380.63 0 378.48-1.15 376.33-2.29 374.82-4.15 373.31-6.01 372.5-8.5 371.7-10.99 371.7-13.77ZM404.7-27.54L409.97-27.54 410.61-24.71 410.61-9.77 410.61-9.67 410.61 0 404.7 0 404.7-27.54ZM412.61-21.34L412.61-26.32Q413.83-27 415.54-27.37 417.25-27.73 420.18-27.73L420.18-27.73 420.18-21.58Q418.81-21.97 416.86-22.02L416.86-22.02Q415.79-22.02 414.69-21.85 413.59-21.68 412.61-21.34L412.61-21.34ZM432.38-27.54L432.38 0 426.43 0 426.43-27.54 432.38-27.54ZM432.92-36.33L432.92-36.33Q432.92-34.86 431.9-33.86 430.87-32.86 429.41-32.86L429.41-32.86Q427.94-32.86 426.94-33.89 425.94-34.91 425.94-36.33L425.94-36.33Q425.94-37.79 426.96-38.82 427.99-39.84 429.41-39.84L429.41-39.84Q430.87-39.84 431.9-38.82 432.92-37.79 432.92-36.33ZM448.54-23.54L448.54-8.35Q448.54-6.69 448.98-5.76 449.42-4.83 450.23-4.35 451.03-3.86 452.04-3.74 453.04-3.61 454.16-3.61L454.16-3.61 454.16 0Q453.52 0.1 452.89 0.15L452.89 0.15Q452.35 0.2 451.6 0.22 450.84 0.24 450.11 0.24L450.11 0.24Q449.37 0.24 448.62 0.2 447.86 0.15 447.32 0.05L447.32 0.05Q445.66-0.24 444.74-1.39 443.81-2.54 443.34-3.93 442.88-5.32 442.76-6.64 442.64-7.96 442.64-8.69L442.64-8.69 442.64-23.54 439.02-23.54 439.02-27.54 442.64-27.54 442.64-35.35 448.54-35.35 448.54-27.54 452.94-27.54 452.94-23.54 448.54-23.54ZM481.7-27.54L487.65-27.54Q484.97-20.36 482.87-14.82 480.77-9.28 479.21-5.1 477.64-0.93 476.45 1.95 475.25 4.83 474.25 6.76 473.25 8.69 472.37 9.79 471.49 10.89 470.56 11.47 469.64 12.06 468.54 12.18 467.44 12.3 466.02 12.3L466.02 12.3Q465.58 12.3 465 12.18 464.41 12.06 463.85 11.89 463.29 11.72 462.85 11.55 462.41 11.38 462.26 11.33L462.26 11.33Q462.46 10.45 462.65 9.67L462.65 9.67Q462.8 8.98 462.97 8.37 463.14 7.76 463.24 7.52L463.24 7.52Q463.63 7.52 464.44 7.76 465.24 8.01 465.63 8.01L465.63 8.01Q466.41 8.01 467.02 7.93 467.63 7.86 468.12 7.5 468.61 7.13 469.05 6.42 469.49 5.71 470.03 4.39L470.03 4.39 471.88 0 481.7-27.54ZM472.86-7.37L470.86-2.59 460.6-27.54 466.51-27.54 473.54-9.03 472.86-7.37Z" opacity="1" transform="matrix(1,0,0,1,0,0)" fill="#000000" class="wordmark-text-0" data-fill-palette-color="quaternary" id="text-0"></path></svg></g></svg></g></svg></g></svg></g><g transform="matrix(1,0,0,1,90.58109339009783,0)"><svg viewBox="0 0 31.996254446961437 31.661139523869824" height="31.661139523869824" width="31.996254446961437"><g><svg xmlns="http://www.w3.org/2000/svg" xmlns:xlink="http://www.w3.org/1999/xlink" version="1.1" x="0" y="0" viewBox="6.074 7.291 86.408 85.503" style="enable-background:new 0 0 100 100;" xml:space="preserve" height="31.661139523869824" width="31.996254446961437" class="icon-icon-0" data-fill-palette-color="quaternary" id="icon-0"><g fill="#000000" data-fill-palette-color="quaternary"><g fill="#000000" data-fill-palette-color="quaternary"><path d="M49.244 7.291C20.463 7.291 6.074 21.542 6.074 50.043S20.463 92.794 49.244 92.794C78.069 92.794 92.482 78.544 92.482 50.043S78.069 7.291 49.244 7.291M74.465 76.06C69.177 81.557 60.771 84.306 49.244 84.306 37.808 84.306 29.434 81.558 24.124 76.06 18.814 70.564 16.159 61.891 16.159 50.043 16.159 38.194 18.814 29.521 24.124 24.025S37.808 15.779 49.244 15.779C60.771 15.779 69.177 18.528 74.465 24.025 79.752 29.521 82.396 38.194 82.396 50.043S79.752 70.563 74.465 76.06" fill="#000000" data-fill-palette-color="quaternary"></path><path d="M63.684 34.904A5.212 5.212 0 1 0 56.312 42.276L58.778 44.742H26.765C24.122 44.742 21.98 47.076 21.98 49.955S24.122 55.168 26.765 55.168H58.954L56.313 57.809A5.212 5.212 0 1 0 63.685 65.181L75.05 53.816A5.2 5.2 0 0 0 76.573 50.044C76.573 50.014 76.577 49.985 76.577 49.955 76.577 48.084 75.669 46.447 74.309 45.528z" fill="#000000" data-fill-palette-color="quaternary"></path></g></g></svg></g></svg></g><g></g></svg></g></svg></g></svg></g></svg></g><defs></defs><mask id="c0b61e62-05f2-4530-a6a2-65ae109a8f2e"><g id="SvgjsG4428"><svg viewBox="0 0 342.85155851775386 342.85155851775386" height="342.85155851775386" width="342.85155851775386"><g><svg></svg></g><g><svg viewBox="0 0 342.85155851775386 342.85155851775386" height="342.85155851775386" width="342.85155851775386"><g><path d="M0 171.426c0-94.676 76.75-171.426 171.426-171.426 94.676 0 171.426 76.75 171.426 171.426 0 94.676-76.75 171.426-171.426 171.426-94.676 0-171.426-76.75-171.426-171.426zM171.426 340.786c93.535 0 169.36-75.825 169.36-169.36 0-93.535-75.825-169.36-169.36-169.36-93.535 0-169.36 75.825-169.36 169.36 0 93.535 75.825 169.36 169.36 169.36z" fill="white" stroke="transparent"></path><ellipse rx="164.56874808852186" ry="164.56874808852186" cx="171.42577925887693" cy="171.42577925887693" fill="white" stroke="transparent" stroke-width="0" fill-opacity="1"></ellipse></g><g transform="matrix(1,0,0,1,64.84655864529837,141.4361737885097)"><svg viewBox="0 0 213.1584412271571 59.97921094073445" height="59.97921094073445" width="213.1584412271571"><g><svg viewBox="0 0 213.1584412271571 59.97921094073445" height="59.97921094073445" width="213.1584412271571"><g><svg viewBox="0 0 213.1584412271571 59.97921094073445" height="59.97921094073445" width="213.1584412271571"><g transform="matrix(1,0,0,1,0,37.069558607977704)"><svg viewBox="0 0 213.1584412271571 22.909652332756746" height="22.909652332756746" width="213.1584412271571"><g id="SvgjsG4427"><svg viewBox="0 0 213.1584412271571 22.909652332756746" height="22.909652332756746" width="213.1584412271571" id="SvgjsSvg4426"><g><svg viewBox="0 0 213.1584412271571 22.909652332756746" height="22.909652332756746" width="213.1584412271571"><g transform="matrix(1,0,0,1,0,0)"><svg width="213.1584412271571" viewBox="2.49 -39.84 485.15999999999997 52.14" height="22.909652332756746" data-palette-color="#000000"><path d="M2.49-35.99L29.88-35.99 29.88-31.98 19.14-31.98 19.14 0 13.23 0 13.23-31.98 2.49-31.98 2.49-35.99ZM36.57 0L36.57-37.94 42.48-37.94 42.48 0 36.57 0ZM57.08-24.51L57.08-24.51Q57.91-23.68 58.37-22.58 58.84-21.48 59.06-20.29 59.27-19.09 59.32-17.87 59.37-16.65 59.37-15.48L59.37-15.48 59.37-0.98 59.37 0 53.42 0 53.42-14.99Q53.42-16.65 53.27-18.16 53.12-19.68 52.59-20.85 52.05-22.02 51.12-22.68 50.19-23.34 48.53-23.34L48.53-23.34Q47.85-23.34 46.7-23.12 45.55-22.9 44.48-22.41L44.48-22.41 44.48-26.17Q45.8-26.86 47.34-27.34 48.87-27.83 50.34-27.83L50.34-27.83Q52.54-27.83 54.05-26.93 55.56-26.03 57.08-24.51ZM79.1-23.19L79.1-27.78Q81.73-27.54 83.86-26.37 85.98-25.2 87.5-23.34 89.01-21.48 89.81-19.09 90.62-16.7 90.62-14.11L90.62-14.11Q90.62-12.94 90.47-11.77L90.47-11.77 73.73-11.77 73.73-16.06 85-16.06Q85-17.33 84.59-18.51 84.17-19.68 83.37-20.68 82.56-21.68 81.49-22.36 80.41-23.05 79.1-23.19L79.1-23.19ZM78.9-4.59L78.9-4.59Q79.44-4.59 80.24-4.71 81.05-4.83 81.95-5.15 82.86-5.47 83.76-5.96 84.66-6.45 85.35-7.13L85.35-7.13 87.5-3.86Q85.88-1.86 83.74-0.83 81.59 0.2 78.27 0.2L78.27 0.2Q75.58 0.2 73.24-0.9 70.89-2 69.23-3.91 67.57-5.81 66.6-8.35 65.62-10.89 65.62-13.82L65.62-13.82Q65.62-16.6 66.52-19.09 67.43-21.58 68.99-23.46 70.55-25.34 72.63-26.51 74.7-27.69 77.09-27.83L77.09-27.83 77.09-23.14Q75.29-22.8 74.12-21.68 72.94-20.56 72.29-19.12 71.63-17.68 71.36-16.16 71.09-14.65 71.09-13.57L71.09-13.57Q71.09-11.67 71.55-10.03 72.02-8.4 72.99-7.2 73.97-6.01 75.41-5.3 76.85-4.59 78.9-4.59ZM136.76-32.67L132.7-29.05Q131.58-30.32 130.31-30.96 129.04-31.59 127.58-31.69L127.58-31.69 127.58-36.52Q133.05-36.28 136.76-32.67L136.76-32.67ZM127.58 0.24L127.58-4.59Q129.04-4.74 130.34-5.37 131.63-6.01 132.7-7.23L132.7-7.23 136.76-3.66Q134.9-1.86 132.61-0.88 130.31 0.1 127.58 0.24L127.58 0.24ZM111.76-18.16L111.76-18.16Q111.76-22.51 112.81-25.83 113.86-29.15 115.71-31.45 117.57-33.74 120.08-35.01 122.6-36.28 125.58-36.52L125.58-36.52 125.58-31.64Q123.96-31.4 122.55-30.54 121.13-29.69 120.06-28.08 118.98-26.46 118.37-24 117.76-21.53 117.71-18.16L117.71-18.16Q117.76-14.75 118.37-12.3 118.98-9.86 120.06-8.2 121.13-6.54 122.57-5.66 124.01-4.79 125.58-4.59L125.58-4.59 125.58 0.2Q122.6 0 120.08-1.27 117.57-2.54 115.71-4.83 113.86-7.13 112.81-10.47 111.76-13.82 111.76-18.16ZM157.8-23.1L157.8-27.69Q160.49-27.54 162.68-26.39 164.88-25.24 166.37-23.36 167.86-21.48 168.69-18.99 169.52-16.5 169.52-13.67L169.52-13.67Q169.52-10.84 168.66-8.37 167.81-5.91 166.3-4.08 164.78-2.25 162.59-1.12 160.39 0 157.8 0.2L157.8 0.2 157.8-4.49Q160.24-5.03 161.78-7.57 163.32-10.11 163.32-13.67L163.32-13.67Q163.32-15.48 162.95-17.07 162.59-18.65 161.85-19.92 161.12-21.19 160.09-22.02 159.07-22.85 157.8-23.1L157.8-23.1ZM144.18-13.77L144.18-13.77Q144.18-16.6 145.01-19.04 145.84-21.48 147.38-23.32 148.91-25.15 151.06-26.27 153.21-27.39 155.8-27.64L155.8-27.64 155.8-23.1Q153.36-22.56 151.89-20.02 150.43-17.48 150.43-13.92L150.43-13.92Q150.43-12.11 150.79-10.5 151.16-8.89 151.84-7.62 152.53-6.35 153.53-5.52 154.53-4.69 155.8-4.49L155.8-4.49 155.8 0.2Q153.11 0 150.96-1.15 148.82-2.29 147.3-4.15 145.79-6.01 144.98-8.5 144.18-10.99 144.18-13.77ZM194.17-37.94L200.13-37.94 200.13 0 194.52 0 194.17-3.27 194.17-37.94ZM175.42-14.16L175.42-14.16Q175.42-17.97 176.47-20.56 177.52-23.14 179.18-24.76 180.84-26.37 182.87-27.08 184.9-27.78 186.85-27.78L186.85-27.78Q188.36-27.78 189.73-27.44 191.1-27.1 192.17-26.46L192.17-26.46 192.17-21.29Q191.34-22.17 190.32-22.71 189.29-23.24 188.02-23.24L188.02-23.24Q186.51-23.24 185.34-22.49 184.16-21.73 183.36-20.41 182.55-19.09 182.11-17.38 181.67-15.67 181.67-13.72L181.67-13.72Q181.67-11.77 182.16-10.08 182.65-8.4 183.48-7.13 184.31-5.86 185.51-5.13 186.7-4.39 188.12-4.39L188.12-4.39Q190.51-4.39 192.17-6.3L192.17-6.3 192.17-1.22Q191-0.59 189.46-0.17 187.92 0.24 186.22 0.24L186.22 0.24Q184.26 0.24 182.38-0.46 180.5-1.17 179.04-2.78L179.04-2.78Q177.18-4.88 176.3-7.98 175.42-11.08 175.42-14.16ZM221.27-23.19L221.27-27.78Q223.91-27.54 226.03-26.37 228.16-25.2 229.67-23.34 231.18-21.48 231.99-19.09 232.8-16.7 232.8-14.11L232.8-14.11Q232.8-12.94 232.65-11.77L232.65-11.77 215.9-11.77 215.9-16.06 227.18-16.06Q227.18-17.33 226.76-18.51 226.35-19.68 225.54-20.68 224.74-21.68 223.66-22.36 222.59-23.05 221.27-23.19L221.27-23.19ZM221.08-4.59L221.08-4.59Q221.61-4.59 222.42-4.71 223.22-4.83 224.13-5.15 225.03-5.47 225.93-5.96 226.84-6.45 227.52-7.13L227.52-7.13 229.67-3.86Q228.06-1.86 225.91-0.83 223.76 0.2 220.44 0.2L220.44 0.2Q217.76 0.2 215.41-0.9 213.07-2 211.41-3.91 209.75-5.81 208.77-8.35 207.8-10.89 207.8-13.82L207.8-13.82Q207.8-16.6 208.7-19.09 209.6-21.58 211.16-23.46 212.73-25.34 214.8-26.51 216.88-27.69 219.27-27.83L219.27-27.83 219.27-23.14Q217.46-22.8 216.29-21.68 215.12-20.56 214.46-19.12 213.8-17.68 213.53-16.16 213.26-14.65 213.26-13.57L213.26-13.57Q213.26-11.67 213.73-10.03 214.19-8.4 215.17-7.2 216.14-6.01 217.59-5.3 219.03-4.59 221.08-4.59ZM271.56-35.94L284.06 0 278 0 268.68-26.95 259.25 0 253.15 0 265.75-35.94 271.56-35.94ZM265.36-11.43L271.9-11.43 273.32-7.47 263.99-7.47 265.36-11.43ZM297.09-27.54L297.09-12.55Q297.09-10.84 297.24-9.35 297.39-7.86 297.88-6.74 298.36-5.62 299.34-4.93 300.32-4.25 301.93-4.25L301.93-4.25Q302.56-4.25 303.73-4.44 304.91-4.64 305.98-5.08L305.98-5.08 305.98-1.46Q304.71-0.78 303.22-0.27 301.73 0.24 300.27 0.24L300.27 0.24Q299.1 0.24 298.17 0.02 297.24-0.2 296.43-0.66 295.63-1.12 294.9-1.71 294.16-2.29 293.43-3.03L293.43-3.03Q292.6-3.86 292.11-4.96 291.63-6.05 291.41-7.25 291.19-8.45 291.16-9.67 291.14-10.89 291.14-12.06L291.14-12.06 291.14-27.54 297.09-27.54ZM307.98-27.54L313.94-27.54 313.94 0 308.62 0 307.98-2.83 307.98-27.54ZM330.1-23.54L330.1-8.35Q330.1-6.69 330.54-5.76 330.98-4.83 331.78-4.35 332.59-3.86 333.59-3.74 334.59-3.61 335.71-3.61L335.71-3.61 335.71 0Q335.08 0.1 334.45 0.15L334.45 0.15Q333.91 0.2 333.15 0.22 332.39 0.24 331.66 0.24L331.66 0.24Q330.93 0.24 330.17 0.2 329.42 0.15 328.88 0.05L328.88 0.05Q327.22-0.24 326.29-1.39 325.36-2.54 324.9-3.93 324.44-5.32 324.31-6.64 324.19-7.96 324.19-8.69L324.19-8.69 324.19-23.54 320.58-23.54 320.58-27.54 324.19-27.54 324.19-35.35 330.1-35.35 330.1-27.54 334.49-27.54 334.49-23.54 330.1-23.54ZM342.65 0L342.65-37.94 348.55-37.94 348.55 0 342.65 0ZM363.15-24.51L363.15-24.51Q363.98-23.68 364.45-22.58 364.91-21.48 365.13-20.29 365.35-19.09 365.4-17.87 365.45-16.65 365.45-15.48L365.45-15.48 365.45-0.98 365.45 0 359.49 0 359.49-14.99Q359.49-16.65 359.35-18.16 359.2-19.68 358.66-20.85 358.12-22.02 357.2-22.68 356.27-23.34 354.61-23.34L354.61-23.34Q353.93-23.34 352.78-23.12 351.63-22.9 350.56-22.41L350.56-22.41 350.56-26.17Q351.87-26.86 353.41-27.34 354.95-27.83 356.42-27.83L356.42-27.83Q358.61-27.83 360.13-26.93 361.64-26.03 363.15-24.51ZM385.32-23.1L385.32-27.69Q388-27.54 390.2-26.39 392.4-25.24 393.89-23.36 395.38-21.48 396.21-18.99 397.04-16.5 397.04-13.67L397.04-13.67Q397.04-10.84 396.18-8.37 395.33-5.91 393.82-4.08 392.3-2.25 390.1-1.12 387.91 0 385.32 0.2L385.32 0.2 385.32-4.49Q387.76-5.03 389.3-7.57 390.84-10.11 390.84-13.67L390.84-13.67Q390.84-15.48 390.47-17.07 390.1-18.65 389.37-19.92 388.64-21.19 387.61-22.02 386.59-22.85 385.32-23.1L385.32-23.1ZM371.7-13.77L371.7-13.77Q371.7-16.6 372.53-19.04 373.36-21.48 374.89-23.32 376.43-25.15 378.58-26.27 380.73-27.39 383.32-27.64L383.32-27.64 383.32-23.1Q380.88-22.56 379.41-20.02 377.95-17.48 377.95-13.92L377.95-13.92Q377.95-12.11 378.31-10.5 378.68-8.89 379.36-7.62 380.05-6.35 381.05-5.52 382.05-4.69 383.32-4.49L383.32-4.49 383.32 0.2Q380.63 0 378.48-1.15 376.33-2.29 374.82-4.15 373.31-6.01 372.5-8.5 371.7-10.99 371.7-13.77ZM404.7-27.54L409.97-27.54 410.61-24.71 410.61-9.77 410.61-9.67 410.61 0 404.7 0 404.7-27.54ZM412.61-21.34L412.61-26.32Q413.83-27 415.54-27.37 417.25-27.73 420.18-27.73L420.18-27.73 420.18-21.58Q418.81-21.97 416.86-22.02L416.86-22.02Q415.79-22.02 414.69-21.85 413.59-21.68 412.61-21.34L412.61-21.34ZM432.38-27.54L432.38 0 426.43 0 426.43-27.54 432.38-27.54ZM432.92-36.33L432.92-36.33Q432.92-34.86 431.9-33.86 430.87-32.86 429.41-32.86L429.41-32.86Q427.94-32.86 426.94-33.89 425.94-34.91 425.94-36.33L425.94-36.33Q425.94-37.79 426.96-38.82 427.99-39.84 429.41-39.84L429.41-39.84Q430.87-39.84 431.9-38.82 432.92-37.79 432.92-36.33ZM448.54-23.54L448.54-8.35Q448.54-6.69 448.98-5.76 449.42-4.83 450.23-4.35 451.03-3.86 452.04-3.74 453.04-3.61 454.16-3.61L454.16-3.61 454.16 0Q453.52 0.1 452.89 0.15L452.89 0.15Q452.35 0.2 451.6 0.22 450.84 0.24 450.11 0.24L450.11 0.24Q449.37 0.24 448.62 0.2 447.86 0.15 447.32 0.05L447.32 0.05Q445.66-0.24 444.74-1.39 443.81-2.54 443.34-3.93 442.88-5.32 442.76-6.64 442.64-7.96 442.64-8.69L442.64-8.69 442.64-23.54 439.02-23.54 439.02-27.54 442.64-27.54 442.64-35.35 448.54-35.35 448.54-27.54 452.94-27.54 452.94-23.54 448.54-23.54ZM481.7-27.54L487.65-27.54Q484.97-20.36 482.87-14.82 480.77-9.28 479.21-5.1 477.64-0.93 476.45 1.95 475.25 4.83 474.25 6.76 473.25 8.69 472.37 9.79 471.49 10.89 470.56 11.47 469.64 12.06 468.54 12.18 467.44 12.3 466.02 12.3L466.02 12.3Q465.58 12.3 465 12.18 464.41 12.06 463.85 11.89 463.29 11.72 462.85 11.55 462.41 11.38 462.26 11.33L462.26 11.33Q462.46 10.45 462.65 9.67L462.65 9.67Q462.8 8.98 462.97 8.37 463.14 7.76 463.24 7.52L463.24 7.52Q463.63 7.52 464.44 7.76 465.24 8.01 465.63 8.01L465.63 8.01Q466.41 8.01 467.02 7.93 467.63 7.86 468.12 7.5 468.61 7.13 469.05 6.42 469.49 5.71 470.03 4.39L470.03 4.39 471.88 0 481.7-27.54ZM472.86-7.37L470.86-2.59 460.6-27.54 466.51-27.54 473.54-9.03 472.86-7.37Z" opacity="1" transform="matrix(1,0,0,1,0,0)" fill="black" class="wordmark-text-0" id="SvgjsPath4425"></path></svg></g></svg></g></svg></g></svg></g><g transform="matrix(1,0,0,1,90.58109339009783,0)"><svg viewBox="0 0 31.996254446961437 31.661139523869824" height="31.661139523869824" width="31.996254446961437"><g><svg xmlns="http://www.w3.org/2000/svg" xmlns:xlink="http://www.w3.org/1999/xlink" version="1.1" x="0" y="0" viewBox="6.074 7.291 86.408 85.503" style="enable-background:new 0 0 100 100;" xml:space="preserve" height="31.661139523869824" width="31.996254446961437" class="icon-icon-0" data-fill-palette-color="quaternary" id="SvgjsSvg4424"><g fill="black"><g fill="black"><path d="M49.244 7.291C20.463 7.291 6.074 21.542 6.074 50.043S20.463 92.794 49.244 92.794C78.069 92.794 92.482 78.544 92.482 50.043S78.069 7.291 49.244 7.291M74.465 76.06C69.177 81.557 60.771 84.306 49.244 84.306 37.808 84.306 29.434 81.558 24.124 76.06 18.814 70.564 16.159 61.891 16.159 50.043 16.159 38.194 18.814 29.521 24.124 24.025S37.808 15.779 49.244 15.779C60.771 15.779 69.177 18.528 74.465 24.025 79.752 29.521 82.396 38.194 82.396 50.043S79.752 70.563 74.465 76.06" fill="black"></path><path d="M63.684 34.904A5.212 5.212 0 1 0 56.312 42.276L58.778 44.742H26.765C24.122 44.742 21.98 47.076 21.98 49.955S24.122 55.168 26.765 55.168H58.954L56.313 57.809A5.212 5.212 0 1 0 63.685 65.181L75.05 53.816A5.2 5.2 0 0 0 76.573 50.044C76.573 50.014 76.577 49.985 76.577 49.955 76.577 48.084 75.669 46.447 74.309 45.528z" fill="black"></path></g></g></svg></g></svg></g><g></g></svg></g></svg></g></svg></g></svg></g><defs><mask></mask></defs></svg><rect width="342.85155851775386" height="342.85155851775386" fill="black" stroke="none" visibility="hidden"></rect></g></mask><linearGradient x1="0" x2="1" y1="0.548" y2="0.55" id="5e8173ef-2546-45ef-8a5b-8aa62be03226"><stop stop-color="#ff6cab" offset="0"></stop><stop stop-color="#7366ff" offset="1"></stop></linearGradient></svg><rect width="342.85155851775386" height="342.85155851775386" fill="none" stroke="none" visibility="hidden"></rect></g></svg></g></svg>